<svg width="15" height="15" viewBox="0 0 15 15" fill="none" xmlns="http://www.w3.org/2000/svg">
<mask id="mask0" mask-type="alpha" maskUnits="userSpaceOnUse" x="0" y="0" width="15" height="15">
<path fill-rule="evenodd" clip-rule="evenodd" d="M7.49998 0.416504C3.58998 0.416504 0.416649 3.58984 0.416649 7.49984C0.416649 11.4098 3.58998 14.5832 7.49998 14.5832C11.41 14.5832 14.5833 11.4098 14.5833 7.49984C14.5833 3.58984 11.41 0.416504 7.49998 0.416504ZM6.13998 6.69231C6.1754 6.45856 6.25332 6.25314 6.35248 6.07606C6.45165 5.89897 6.59332 5.75022 6.7704 5.63689C6.9404 5.53064 7.1529 5.48106 7.41498 5.47397C7.5779 5.48106 7.72665 5.50939 7.86123 5.56606C8.0029 5.62981 8.1304 5.71481 8.22957 5.82106C8.32873 5.92731 8.40665 6.05481 8.4704 6.19647C8.53415 6.33814 8.56248 6.49397 8.56957 6.64981H9.83748C9.82332 6.31689 9.75957 6.01231 9.63915 5.73606C9.51873 5.45981 9.35582 5.21897 9.14332 5.02064C8.93082 4.82231 8.67582 4.66647 8.37832 4.55314C8.08082 4.43981 7.75498 4.39022 7.39373 4.39022C6.93332 4.39022 6.52957 4.46814 6.18957 4.63106C5.84957 4.79397 5.56623 5.00647 5.33957 5.28272C5.1129 5.55897 4.9429 5.87772 4.83665 6.24606C4.7304 6.61439 4.66665 6.99689 4.66665 7.40772V7.59897C4.66665 8.00981 4.72332 8.39231 4.82957 8.76064C4.93582 9.12897 5.10582 9.44772 5.33248 9.71689C5.55915 9.98606 5.84248 10.2056 6.18248 10.3615C6.52248 10.5173 6.92623 10.6023 7.38665 10.6023C7.71957 10.6023 8.03123 10.5456 8.32165 10.4394C8.61207 10.3331 8.86707 10.1844 9.08665 9.99314C9.30623 9.80189 9.48332 9.5823 9.61082 9.32731C9.73832 9.07231 9.81623 8.80314 9.82332 8.51272H8.5554C8.54832 8.66147 8.5129 8.79606 8.44915 8.92356C8.3854 9.05106 8.3004 9.15731 8.19415 9.24939C8.0879 9.34147 7.96748 9.41231 7.82582 9.46189C7.69123 9.51147 7.54957 9.52564 7.40082 9.53272C7.14582 9.52564 6.93332 9.47606 6.7704 9.36981C6.59332 9.25647 6.45165 9.10772 6.35248 8.93064C6.25332 8.75356 6.1754 8.54106 6.13998 8.30731C6.10457 8.07356 6.08332 7.83272 6.08332 7.59897V7.40772C6.08332 7.15981 6.10457 6.92606 6.13998 6.69231ZM1.83332 7.49984C1.83332 10.6236 4.37623 13.1665 7.49998 13.1665C10.6237 13.1665 13.1666 10.6236 13.1666 7.49984C13.1666 4.37609 10.6237 1.83317 7.49998 1.83317C4.37623 1.83317 1.83332 4.37609 1.83332 7.49984Z" fill="white"/>
</mask>
<g mask="url(#mask0)">
<rect x="-1.00002" y="-1" width="17" height="17" fill="#8A8A8A"/>
</g>
</svg>
